# Blender 3.6.1
# www.blender.org
mtllib ame_dozet.mtl
o Cube
v 0.071316 -0.030945 -0.511540
v 0.034261 0.128459 -0.341500
v 0.244367 0.034805 -0.437191
v 0.864462 -1.000000 -0.864462
v 0.734374 -0.875314 -0.946858
v 0.916121 -0.893534 -0.811691
v 0.361688 0.158212 0.230345
v 0.188421 0.195582 0.182082
v 0.280722 0.118155 0.373073
v 0.938675 -0.879128 0.785512
v 0.790811 -0.880389 0.936252
v 0.864462 -1.000000 0.864462
v -0.543544 -0.052752 -0.322773
v -0.624850 -0.125293 -0.148170
v -0.464426 -0.003941 -0.124501
v -0.954549 -0.872310 -0.731553
v -0.821258 -0.893293 -0.916427
v -0.864462 -1.000000 -0.864462
v -0.565277 -0.265589 0.318977
v -0.351143 -0.246654 0.486380
v -0.360954 -0.088480 0.245422
v -0.864462 -1.000000 0.864462
v -0.767157 -0.894316 0.915138
v -0.920204 -0.890440 0.750439
v 0.938675 -0.879128 0.785512
vn -0.0000 -1.0000 -0.0000
vn -0.8954 0.4381 0.0788
vn -0.0527 0.5132 0.8567
vn -0.3398 0.9333 0.1162
vn 0.8446 0.5288 -0.0843
vn 0.0153 0.7311 -0.6821
vn 0.6002 0.1020 -0.7933
vn 0.1114 0.9386 0.3266
vn 0.7137 0.0192 0.7002
vn -0.6070 0.7933 0.0469
vn -0.8082 0.0412 -0.5874
vn -0.4567 0.7350 0.5011
vn -0.6893 0.3238 0.6481
vn -0.8517 -0.5240 0.0062
vn -0.0052 -0.5036 -0.8639
vn 0.3487 0.5938 -0.7251
vn -0.5118 0.6719 0.5353
vn 0.5826 0.6076 0.5398
vn -0.7461 0.5565 -0.3656
vn -0.3539 0.7834 0.5109
vn 0.2918 0.9319 -0.2156
vn -0.0036 -0.4773 0.8787
vn -0.5749 0.7552 0.3148
vn -0.2807 0.8489 -0.4478
vn 0.8747 -0.4847 -0.0038
vn -0.0960 0.5027 -0.8591
vt 0.141942 0.516942
vt 0.358058 0.516942
vt 0.358058 0.733058
vt 0.141942 0.733058
vt 0.409438 0.023327
vt 0.594255 0.036241
vt 0.595902 0.211552
vt 0.406211 0.226521
vt 0.399239 0.770616
vt 0.600687 0.781839
vt 0.593473 0.967380
vt 0.407144 0.977949
vt 0.665100 0.541899
vt 0.835837 0.547751
vt 0.837216 0.701556
vt 0.663445 0.707748
vt 0.398835 0.520161
vt 0.601528 0.532027
vt 0.602338 0.717759
vt 0.398269 0.729383
vt 0.598978 0.466468
vt 0.625000 0.452700
vt 0.608755 0.500000
vt 0.341797 0.506643
vt 0.364515 0.523539
vt 0.611898 0.755204
vt 0.625000 0.797112
vt 0.367334 0.723189
vt 0.348851 0.742031
vt 0.601871 0.250000
vt 0.625000 0.202982
vt 0.130681 0.533556
vt 0.147343 0.510447
vt 0.615975 0.000000
vt 0.625000 0.054125
vt 0.154105 0.739392
vt 0.134974 0.718805
vt 0.125000 0.718805
vt 0.125000 0.533556
vt 0.147343 0.500000
vt 0.341797 0.500000
vt 0.402838 0.477239
vt 0.425510 0.000000
vt 0.599153 0.283138
vt 0.401092 0.270542
vt 0.625000 0.962460
vt 0.348851 0.750000
vt 0.154105 0.750000
vt 0.625000 0.286549
s 0
usemtl Material
f 18/1/1 4/2/1 12/3/1 22/4/1
f 24/5/2 19/6/2 14/7/2 16/8/2
f 11/9/3 9/10/3 20/11/3 23/12/3
f 2/13/4 15/14/4 21/15/4 8/16/4
f 6/17/5 3/18/5 7/19/5 10/20/5
f 1/21/6 2/22/6 3/23/6
f 4/2/7 5/24/7 6/25/7
f 7/26/8 8/27/8 9/10/8
f 10/28/9 11/29/9 12/3/9
f 13/30/10 14/7/10 15/31/10
f 16/32/11 17/33/11 18/1/11
f 19/6/12 20/34/12 21/35/12
f 22/4/13 23/36/13 24/37/13
f 18/1/14 22/4/14 24/38/14 16/39/14
f 4/2/15 18/1/15 17/40/15 5/41/15
f 3/18/16 6/17/16 5/42/16 1/21/16
f 23/43/17 20/34/17 19/6/17 24/5/17
f 9/10/18 11/9/18 10/20/18 7/19/18
f 13/44/19 17/45/19 16/8/19 14/7/19
f 8/27/20 21/46/20 20/11/20 9/10/20
f 2/13/21 8/16/21 7/19/21 3/18/21
f 22/4/22 12/3/22 11/47/22 23/48/22
f 21/35/23 15/31/23 14/7/23 19/6/23
f 15/49/24 2/22/24 1/21/24 13/44/24
f 12/3/25 4/2/25 6/17/25 10/20/25
f 17/45/26 13/44/26 1/21/26 5/42/26
l 10 25
o Cube.001
v 0.033593 -0.343478 -0.240953
v 0.016138 -0.268394 -0.160858
v 0.115105 -0.312508 -0.205932
v 0.407192 -0.799938 -0.407192
v 0.345916 -0.741206 -0.446004
v 0.431525 -0.749788 -0.382335
v 0.170368 -0.254379 0.108501
v 0.088753 -0.236776 0.085767
v 0.132230 -0.273247 0.175730
v 0.442149 -0.743003 0.370004
v 0.372500 -0.743596 0.441008
v 0.407192 -0.799938 0.407192
v -0.256028 -0.353750 -0.152038
v -0.294327 -0.387920 -0.069793
v -0.218761 -0.330759 -0.058644
v -0.449626 -0.739791 -0.344587
v -0.386842 -0.749675 -0.431670
v -0.407192 -0.799938 -0.407192
v -0.266266 -0.454004 0.150249
v -0.165401 -0.445085 0.229102
v -0.170022 -0.370580 0.115602
v -0.407192 -0.799938 0.407192
v -0.361358 -0.750157 0.431062
v -0.433449 -0.748331 0.353483
v 0.442149 -0.743003 0.370004
vn -0.0000 -1.0000 -0.0000
vn -0.8954 0.4381 0.0788
vn -0.0527 0.5132 0.8567
vn -0.3398 0.9333 0.1162
vn 0.8446 0.5288 -0.0843
vn 0.0153 0.7311 -0.6821
vn 0.6002 0.1020 -0.7933
vn 0.1114 0.9386 0.3266
vn 0.7137 0.0192 0.7002
vn -0.6070 0.7933 0.0469
vn -0.8082 0.0412 -0.5874
vn -0.4567 0.7350 0.5011
vn -0.6893 0.3238 0.6481
vn -0.8517 -0.5240 0.0062
vn -0.0052 -0.5036 -0.8639
vn 0.3487 0.5938 -0.7251
vn -0.5118 0.6719 0.5353
vn 0.5826 0.6076 0.5398
vn -0.7461 0.5565 -0.3656
vn -0.3539 0.7834 0.5109
vn 0.2918 0.9319 -0.2156
vn -0.0036 -0.4773 0.8787
vn -0.5749 0.7552 0.3148
vn -0.2807 0.8489 -0.4478
vn 0.8747 -0.4847 -0.0038
vn -0.0960 0.5027 -0.8591
vt 0.141942 0.516942
vt 0.358058 0.516942
vt 0.358058 0.733058
vt 0.141942 0.733058
vt 0.409438 0.023327
vt 0.594255 0.036241
vt 0.595902 0.211552
vt 0.406211 0.226521
vt 0.399239 0.770616
vt 0.600687 0.781839
vt 0.593473 0.967380
vt 0.407144 0.977949
vt 0.665100 0.541899
vt 0.835837 0.547751
vt 0.837216 0.701556
vt 0.663445 0.707748
vt 0.398835 0.520161
vt 0.601528 0.532027
vt 0.602338 0.717759
vt 0.398269 0.729383
vt 0.598978 0.466468
vt 0.625000 0.452700
vt 0.608755 0.500000
vt 0.341797 0.506643
vt 0.364515 0.523539
vt 0.611898 0.755204
vt 0.625000 0.797112
vt 0.367334 0.723189
vt 0.348851 0.742031
vt 0.601871 0.250000
vt 0.625000 0.202982
vt 0.130681 0.533556
vt 0.147343 0.510447
vt 0.615975 0.000000
vt 0.625000 0.054125
vt 0.154105 0.739392
vt 0.134974 0.718805
vt 0.125000 0.718805
vt 0.125000 0.533556
vt 0.147343 0.500000
vt 0.341797 0.500000
vt 0.402838 0.477239
vt 0.425510 0.000000
vt 0.599153 0.283138
vt 0.401092 0.270542
vt 0.625000 0.962460
vt 0.348851 0.750000
vt 0.154105 0.750000
vt 0.625000 0.286549
s 0
usemtl Material.001
f 43/50/27 29/51/27 37/52/27 47/53/27
f 49/54/28 44/55/28 39/56/28 41/57/28
f 36/58/29 34/59/29 45/60/29 48/61/29
f 27/62/30 40/63/30 46/64/30 33/65/30
f 31/66/31 28/67/31 32/68/31 35/69/31
f 26/70/32 27/71/32 28/72/32
f 29/51/33 30/73/33 31/74/33
f 32/75/34 33/76/34 34/59/34
f 35/77/35 36/78/35 37/52/35
f 38/79/36 39/56/36 40/80/36
f 41/81/37 42/82/37 43/50/37
f 44/55/38 45/83/38 46/84/38
f 47/53/39 48/85/39 49/86/39
f 43/50/40 47/53/40 49/87/40 41/88/40
f 29/51/41 43/50/41 42/89/41 30/90/41
f 28/67/42 31/66/42 30/91/42 26/70/42
f 48/92/43 45/83/43 44/55/43 49/54/43
f 34/59/44 36/58/44 35/69/44 32/68/44
f 38/93/45 42/94/45 41/57/45 39/56/45
f 33/76/46 46/95/46 45/60/46 34/59/46
f 27/62/47 33/65/47 32/68/47 28/67/47
f 47/53/48 37/52/48 36/96/48 48/97/48
f 46/84/49 40/80/49 39/56/49 44/55/49
f 40/98/50 27/71/50 26/70/50 38/93/50
f 37/52/51 29/51/51 31/66/51 35/69/51
f 42/94/52 38/93/52 26/70/52 30/91/52
l 35 50
