# Blender v3.6.1 OBJ File: 'hammer.blend'
# www.blender.org
mtllib hammer.mtl
o Cube_Cube.001
v -0.100000 -0.673166 0.108083
v -0.100000 0.626834 0.108083
v -0.100000 -0.673166 -0.111917
v -0.100000 0.626834 -0.111917
v 0.100000 -0.673166 0.108083
v 0.100000 0.626834 0.108083
v 0.100000 -0.673166 -0.111917
v 0.100000 0.626834 -0.111917
v 0.000000 -0.673166 -0.121917
v 0.000000 0.626834 -0.121917
v 0.000000 -0.673166 0.118083
v 0.000000 0.626834 0.118083
v -0.130000 -0.673166 -0.001917
v -0.130000 0.626834 -0.001917
v 0.130000 -0.673166 -0.001917
v 0.130000 0.626834 -0.001917
v 0.000000 0.626834 -0.001917
v 0.000000 -0.673166 -0.001917
v -0.180000 0.600000 0.400000
v -0.180000 0.960000 0.400000
v -0.145800 0.634200 -0.400000
v -0.145800 0.925800 -0.400000
v 0.180000 0.600000 0.400000
v 0.180000 0.960000 0.400000
v 0.145800 0.634200 -0.400000
v 0.145800 0.925800 -0.400000
vt 0.465060 0.746448
vt 0.470511 0.326661
vt 0.537166 0.326469
vt 0.531716 0.746255
vt 0.468033 0.720124
vt 0.461811 0.420949
vt 0.528466 0.420756
vt 0.534688 0.719931
vt 0.465169 0.818303
vt 0.468674 0.421860
vt 0.535329 0.421667
vt 0.531824 0.818110
vt 0.464251 0.824401
vt 0.467756 0.492804
vt 0.534411 0.492611
vt 0.530906 0.824208
vt 0.500949 0.656126
vt 0.547682 0.656126
vt 0.547682 0.702858
vt 0.500949 0.702858
vt 0.750000 0.625000
vt 0.875000 0.625000
vt 0.875000 0.750000
vt 0.750000 0.750000
vt 0.625000 0.625000
vt 0.625000 0.750000
vt 0.454217 0.656126
vt 0.454217 0.702858
vt 0.467628 0.819407
vt 0.471133 0.390542
vt 0.537788 0.390349
vt 0.534283 0.819214
vt 0.461683 0.772193
vt 0.463243 0.313500
vt 0.529898 0.313307
vt 0.528338 0.772000
vt 0.454217 0.609393
vt 0.500949 0.609393
vt 0.625000 0.500000
vt 0.750000 0.500000
vt 0.875000 0.500000
vt 0.547682 0.609393
vt 0.472437 0.823683
vt 0.472051 0.406491
vt 0.538707 0.406298
vt 0.539092 0.823490
vt 0.470383 0.823157
vt 0.469997 0.394293
vt 0.536653 0.394100
vt 0.537038 0.822965
vt 0.655154 0.882598
vt 0.655154 0.952210
vt 0.362354 0.950913
vt 0.362354 0.881301
vt 0.542204 0.952174
vt 0.469468 0.952174
vt 0.469468 0.879437
vt 0.542204 0.879437
vt 0.639814 0.879272
vt 0.639259 0.954886
vt 0.371858 0.955629
vt 0.372413 0.880014
vt 0.563131 0.887224
vt 0.639185 0.887224
vt 0.631980 0.945778
vt 0.562554 0.945778
vt 0.589685 0.878228
vt 0.589685 0.955375
vt 0.416104 0.955375
vt 0.416104 0.878228
vt 0.631012 0.876890
vt 0.630206 0.952331
vt 0.388488 0.951525
vt 0.389294 0.876085
vn -0.9648 0.0000 -0.2631
vn 0.0995 0.0000 -0.9950
vn 0.9648 0.0000 0.2631
vn -0.0995 0.0000 0.9950
vn 0.0000 -1.0000 0.0000
vn 0.0000 1.0000 -0.0000
vn 0.0995 0.0000 0.9950
vn -0.0995 0.0000 -0.9950
vn 0.9648 0.0000 -0.2631
vn -0.9648 0.0000 0.2631
vn -0.9991 0.0000 -0.0427
vn 0.0000 0.0000 -1.0000
vn 0.9991 0.0000 -0.0427
vn 0.0000 0.0000 1.0000
vn 0.0000 -0.9991 -0.0427
vn 0.0000 0.9991 -0.0427
usemtl Material.001
s off
f 13/1/1 14/2/1 4/3/1 3/4/1
f 9/5/2 10/6/2 8/7/2 7/8/2
f 15/9/3 16/10/3 6/11/3 5/12/3
f 11/13/4 12/14/4 2/15/4 1/16/4
f 18/17/5 15/18/5 5/19/5 11/20/5
f 17/21/6 14/22/6 2/23/6 12/24/6
f 16/25/6 17/21/6 12/24/6 6/26/6
f 13/27/5 18/17/5 11/20/5 1/28/5
f 5/29/7 6/30/7 12/31/7 11/32/7
f 3/33/8 4/34/8 10/35/8 9/36/8
f 3/37/5 9/38/5 18/17/5 13/27/5
f 8/39/6 10/40/6 17/21/6 16/25/6
f 10/40/6 4/41/6 14/22/6 17/21/6
f 9/38/5 7/42/5 15/18/5 18/17/5
f 7/43/9 8/44/9 16/45/9 15/46/9
f 1/47/10 2/48/10 14/49/10 13/50/10
f 19/51/11 20/52/11 22/53/11 21/54/11
f 21/55/12 22/56/12 26/57/12 25/58/12
f 25/59/13 26/60/13 24/61/13 23/62/13
f 23/63/14 24/64/14 20/65/14 19/66/14
f 21/67/15 25/68/15 23/69/15 19/70/15
f 26/71/16 22/72/16 20/73/16 24/74/16
