# Blender 3.6.1
# www.blender.org
mtllib hand.mtl
o Cube
v 0.600000 0.400000 -0.200000
v 0.600000 -0.400000 -0.200000
v 0.600000 0.400000 0.200000
v 0.600000 -0.400000 0.200000
v -0.600000 0.400000 -0.200000
v -0.600000 -0.400000 -0.200000
v -0.600000 0.400000 0.200000
v -0.600000 -0.400000 0.200000
v 0.000000 -0.400000 -0.400000
v 0.000000 0.400000 0.400000
v 0.000000 -0.400000 0.400000
v 0.000000 0.400000 -0.400000
v -0.600000 -0.400000 0.000000
v 0.600000 0.400000 0.000000
v -0.600000 0.400000 0.000000
v 0.600000 -0.400000 0.000000
v 0.000000 -0.500000 0.000000
v 0.000000 0.500000 0.000000
vn -0.1089 0.9805 0.1634
vn -0.3162 -0.0000 0.9487
vn -1.0000 -0.0000 -0.0000
vn 0.1089 -0.9805 0.1634
vn 1.0000 -0.0000 -0.0000
vn 0.3162 -0.0000 -0.9487
vn -0.3162 -0.0000 -0.9487
vn -0.1089 -0.9805 0.1634
vn 0.3162 -0.0000 0.9487
vn 0.1089 0.9805 0.1634
vn 0.1089 0.9805 -0.1634
vn -0.1089 -0.9805 -0.1634
vn 0.1089 -0.9805 -0.1634
vn -0.1089 0.9805 -0.1634
vt 0.750000 0.625000
vt 0.875000 0.625000
vt 0.875000 0.750000
vt 0.750000 0.750000
vt 0.375000 0.875000
vt 0.625000 0.875000
vt 0.625000 1.000000
vt 0.375000 1.000000
vt 0.375000 0.125000
vt 0.625000 0.125000
vt 0.625000 0.250000
vt 0.375000 0.250000
vt 0.250000 0.625000
vt 0.375000 0.625000
vt 0.375000 0.750000
vt 0.250000 0.750000
vt 0.625000 0.625000
vt 0.625000 0.750000
vt 0.375000 0.375000
vt 0.625000 0.375000
vt 0.625000 0.500000
vt 0.375000 0.500000
vt 0.125000 0.625000
vt 0.125000 0.750000
vt 0.750000 0.500000
vt 0.125000 0.500000
vt 0.250000 0.500000
vt 0.375000 0.000000
vt 0.625000 0.000000
vt 0.875000 0.500000
s 0
usemtl Material
f 18/1/1 15/2/1 7/3/1 10/4/1
f 11/5/2 10/6/2 7/7/2 8/8/2
f 13/9/3 15/10/3 5/11/3 6/12/3
f 17/13/4 16/14/4 4/15/4 11/16/4
f 16/14/5 14/17/5 3/18/5 4/15/5
f 9/19/6 12/20/6 1/21/6 2/22/6
f 6/12/7 5/11/7 12/20/7 9/19/7
f 13/23/8 17/13/8 11/16/8 8/24/8
f 4/15/9 3/18/9 10/6/9 11/5/9
f 14/17/10 18/1/10 10/4/10 3/18/10
f 1/21/11 12/25/11 18/1/11 14/17/11
f 6/26/12 9/27/12 17/13/12 13/23/12
f 2/22/5 1/21/5 14/17/5 16/14/5
f 9/27/13 2/22/13 16/14/13 17/13/13
f 8/28/3 7/29/3 15/10/3 13/9/3
f 12/25/14 5/30/14 15/2/14 18/1/14
