# Blender v3.6.1 OBJ File: 'meat.blend'
# www.blender.org
mtllib meat.mtl
o Cube
v 0.083888 0.119394 -0.157421
v 0.184283 -0.152502 -0.092635
v 0.152720 0.091740 0.126249
v 0.123211 -0.121536 0.218137
v -0.205650 0.134693 -0.060412
v -0.149964 -0.139554 -0.033345
v -0.197640 0.105610 0.136132
v -0.133053 -0.099134 0.095891
v 0.232220 0.007671 -0.142480
v -0.216637 0.016181 0.190239
v 0.224194 0.041293 0.173379
v -0.253492 -0.011705 -0.118033
v -0.236840 -0.149447 -0.027328
v 0.200466 0.139285 0.013152
v -0.228461 0.172200 -0.001834
v 0.157353 -0.170835 0.027338
v 0.294595 0.007671 0.057520
v -0.379331 0.044591 0.001618
vt 0.625000 0.625000
vt 0.875000 0.625000
vt 0.875000 0.750000
vt 0.625000 0.750000
vt 0.500000 0.750000
vt 0.625000 1.000000
vt 0.500000 1.000000
vt 0.500000 0.125000
vt 0.625000 0.125000
vt 0.625000 0.250000
vt 0.500000 0.250000
vt 0.125000 0.625000
vt 0.375000 0.625000
vt 0.375000 0.750000
vt 0.125000 0.750000
vt 0.500000 0.625000
vt 0.625000 0.500000
vt 0.500000 0.500000
vt 0.375000 0.250000
vt 0.375000 0.500000
vt 0.375000 0.125000
vt 0.375000 1.000000
vt 0.375000 0.000000
vt 0.500000 0.000000
vt 0.125000 0.500000
vt 0.625000 0.000000
vt 0.875000 0.500000
vn 0.0518 0.9078 0.4162
vn 0.0189 0.5908 0.8066
vn -0.5111 0.5078 -0.6935
vn -0.1523 -0.9318 0.3294
vn 0.5975 0.7204 0.3521
vn -0.1545 0.1023 -0.9827
vn -0.0881 -0.4355 -0.8959
vn 0.7602 -0.5135 0.3980
vn -0.5167 -0.5136 -0.6850
vn -0.1468 -0.1647 0.9754
vn -0.5695 -0.6277 0.5307
vn 0.8676 -0.4816 -0.1237
vn 0.7014 0.6084 -0.3714
vn -0.0471 -0.9648 -0.2587
vn -0.5948 0.6057 0.5286
vn 0.0355 0.9659 -0.2565
usemtl Material
s off
f 14/1/1 15/2/1 7/3/1 3/4/1
f 11/5/2 3/4/2 7/6/2 10/7/2
f 18/8/3 15/9/3 5/10/3 12/11/3
f 13/12/4 16/13/4 4/14/4 8/15/4
f 17/16/5 14/1/5 3/4/5 11/5/5
f 12/11/6 5/10/6 1/17/6 9/18/6
f 6/19/7 12/11/7 9/18/7 2/20/7
f 16/13/8 17/16/8 11/5/8 4/14/8
f 13/21/9 18/8/9 12/11/9 6/19/9
f 4/14/10 11/5/10 10/7/10 8/22/10
f 8/23/11 10/24/11 18/8/11 13/21/11
f 2/20/12 9/18/12 17/16/12 16/13/12
f 9/18/13 1/17/13 14/1/13 17/16/13
f 6/25/14 2/20/14 16/13/14 13/12/14
f 10/24/15 7/26/15 15/9/15 18/8/15
f 1/17/16 5/27/16 15/2/16 14/1/16
