# Blender v3.6.1 OBJ File: 'sigil.blend'
# www.blender.org
mtllib sigil.mtl
o Cube
v 1.346611 3.900000 -1.346611
v 1.000000 -1.000000 -1.000000
v 1.346611 3.900000 1.346611
v 1.000000 -1.000000 1.000000
v -1.346611 3.900000 -1.346611
v -1.000000 -1.000000 -1.000000
v -1.346611 3.900000 1.346611
v -1.000000 -1.000000 1.000000
v 0.000000 5.500000 0.000000
v 0.000000 5.500000 0.000000
v 0.000000 5.500000 0.000000
v 0.000000 5.500000 0.000000
vt 0.349796 0.720674
vt 0.685733 0.720674
vt 0.517765 0.920248
vt 0.517765 0.920248
vt 0.389225 0.125048
vt 0.433356 0.748920
vt 0.090453 0.748920
vt 0.134584 0.125048
vt 0.642499 0.109477
vt 0.393031 0.109477
vt 0.125000 0.500000
vt 0.375000 0.500000
vt 0.375000 0.750000
vt 0.125000 0.750000
vt 0.921024 0.095946
vt 0.965719 0.727798
vt 0.618430 0.727798
vt 0.663125 0.095946
vt 0.851133 0.212966
vt 0.887562 0.727963
vt 0.604501 0.727963
vt 0.640930 0.212966
vt 0.792075 0.934117
vt 0.792075 0.934117
vt 0.746032 0.896125
vt 0.746032 0.896125
vt 0.261905 0.952633
vt 0.261905 0.952633
vt 0.625000 0.500000
vt 0.875000 0.500000
vt 0.625000 0.750000
vt 0.875000 0.750000
vn -0.7651 0.6439 0.0000
vn 0.0000 -0.0706 0.9975
vn -0.9975 -0.0706 0.0000
vn 0.0000 -1.0000 0.0000
vn 0.9975 -0.0706 0.0000
vn 0.0000 -0.0706 -0.9975
vn 0.7651 0.6439 0.0000
vn 0.0000 0.6439 -0.7651
vn 0.0000 0.6439 0.7651
vn 0.0000 0.0000 1.0000
usemtl Material
s off
f 5/1/1 7/2/1 12/3/1 11/4/1
f 4/5/2 3/6/2 7/7/2 8/8/2
f 8/9/3 7/2/3 5/1/3 6/10/3
f 6/11/4 2/12/4 4/13/4 8/14/4
f 2/15/5 1/16/5 3/17/5 4/18/5
f 6/19/6 5/20/6 1/21/6 2/22/6
f 3/17/7 1/16/7 9/23/7 10/24/7
f 1/21/8 5/20/8 11/25/8 9/26/8
f 7/7/9 3/6/9 10/27/9 12/28/9
f 9/29/10 11/30/10 10/31/10 12/32/10
