# Blender v3.6.1 OBJ File: 'zombiehead.blend'
# www.blender.org
mtllib zombiehead.mtl
o Cube_Cube.001
v 0.320000 0.720000 -0.320000
v 0.320000 -0.720000 -0.220000
v 0.320000 0.720000 0.320000
v 0.320000 -0.720000 0.220000
v -0.320000 0.720000 -0.320000
v -0.320000 -0.720000 -0.220000
v -0.320000 0.720000 0.320000
v -0.320000 -0.720000 0.220000
v 0.420000 0.000000 -0.520000
v -0.420000 0.000000 0.520000
v 0.420000 0.000000 0.520000
v -0.420000 0.000000 -0.520000
v -0.420000 -0.720000 0.000000
v 0.420000 0.720000 0.000000
v -0.420000 0.720000 0.000000
v 0.420000 -0.720000 0.000000
v 0.588000 0.000000 0.000000
v -0.588000 0.000000 0.000000
vt 0.612899 0.467510
vt 0.985392 0.467510
vt 0.985392 0.653756
vt 0.612899 0.653756
vt 0.689882 0.226873
vt 0.897036 0.226873
vt 0.897036 0.641182
vt 0.689882 0.641182
vt 0.500000 0.125000
vt 0.625000 0.125000
vt 0.625000 0.250000
vt 0.500000 0.250000
vt 0.296918 0.338018
vt 0.716879 0.338018
vt 0.716879 0.547999
vt 0.296918 0.547999
vt 0.307884 0.349509
vt 0.307626 1.064282
vt 0.058641 1.064023
vt 0.058899 0.349251
vt 0.500000 0.148035
vt 0.726965 0.148035
vt 0.726965 0.601965
vt 0.500000 0.601965
vt 0.273035 0.148035
vt 0.273035 0.601965
vt 0.301441 0.271229
vt 0.307884 0.474509
vt 0.079004 0.474251
vt 0.072560 0.270971
vt 0.375000 0.125000
vt 0.375000 0.250000
vt 0.482727 0.226873
vt 0.482727 0.641182
vt 0.375000 0.000000
vt 0.500000 0.000000
vt 0.530321 0.271487
vt 0.536765 0.474767
vt 0.554636 0.349767
vt 0.554378 1.064540
vt 0.296918 0.128037
vt 0.716879 0.128037
vt 0.625000 0.000000
vt 0.612899 0.281264
vt 0.985392 0.281264
vn 0.0000 1.0000 0.0000
vn 0.0000 0.2676 0.9635
vn -0.9305 0.2144 -0.2969
vn 0.0000 -1.0000 0.0000
vn 0.9305 0.2144 0.2969
vn 0.0000 0.2676 -0.9635
vn 0.0000 -0.3846 -0.9231
vn 0.9130 -0.2388 0.3307
vn -0.9130 -0.2388 -0.3307
vn 0.0000 -0.3846 0.9231
vn -0.9130 -0.2388 0.3307
vn 0.9130 -0.2388 -0.3307
vn 0.9305 0.2144 -0.2969
vn -0.9305 0.2144 0.2969
usemtl Material.001
s off
f 14/1/1 15/2/1 7/3/1 3/4/1
f 11/5/2 3/6/2 7/7/2 10/8/2
f 18/9/3 15/10/3 5/11/3 12/12/3
f 13/13/4 16/14/4 4/15/4 8/16/4
f 17/17/5 14/18/5 3/19/5 11/20/5
f 12/21/6 5/22/6 1/23/6 9/24/6
f 6/25/7 12/21/7 9/24/7 2/26/7
f 16/27/8 17/28/8 11/29/8 4/30/8
f 13/31/9 18/9/9 12/12/9 6/32/9
f 4/33/10 11/5/10 10/8/10 8/34/10
f 8/35/11 10/36/11 18/9/11 13/31/11
f 2/37/12 9/38/12 17/28/12 16/27/12
f 9/39/13 1/40/13 14/18/13 17/17/13
f 6/41/4 2/42/4 16/14/4 13/13/4
f 10/36/14 7/43/14 15/10/14 18/9/14
f 1/44/1 5/45/1 15/2/1 14/1/1
